<mxfile host="app.diagrams.net" agent="Mozilla/5.0 (Windows NT 10.0; Win64; x64) AppleWebKit/537.36 (KHTML, like Gecko) Chrome/127.0.0.0 Safari/537.36 OPR/113.0.0.0" version="24.8.1" pages="2">
  <diagram id="C5RBs43oDa-KdzZeNtuy" name="If">
    <mxGraphModel dx="1009" dy="547" grid="1" gridSize="10" guides="1" tooltips="1" connect="1" arrows="1" fold="1" page="1" pageScale="1" pageWidth="827" pageHeight="1169" math="0" shadow="0">
      <root>
        <mxCell id="WIyWlLk6GJQsqaUBKTNV-0" />
        <mxCell id="WIyWlLk6GJQsqaUBKTNV-1" parent="WIyWlLk6GJQsqaUBKTNV-0" />
        <mxCell id="U6u_kDi3AGG093OxEGTw-5" style="edgeStyle=orthogonalEdgeStyle;rounded=0;orthogonalLoop=1;jettySize=auto;html=1;entryX=0.5;entryY=0;entryDx=0;entryDy=0;" edge="1" parent="WIyWlLk6GJQsqaUBKTNV-1" source="U6u_kDi3AGG093OxEGTw-2" target="U6u_kDi3AGG093OxEGTw-4">
          <mxGeometry relative="1" as="geometry" />
        </mxCell>
        <mxCell id="U6u_kDi3AGG093OxEGTw-2" value="Start" style="strokeWidth=2;html=1;shape=mxgraph.flowchart.terminator;whiteSpace=wrap;" vertex="1" parent="WIyWlLk6GJQsqaUBKTNV-1">
          <mxGeometry x="150" y="190" width="100" height="60" as="geometry" />
        </mxCell>
        <mxCell id="U6u_kDi3AGG093OxEGTw-3" value="End" style="strokeWidth=2;html=1;shape=mxgraph.flowchart.terminator;whiteSpace=wrap;" vertex="1" parent="WIyWlLk6GJQsqaUBKTNV-1">
          <mxGeometry x="150" y="585" width="100" height="60" as="geometry" />
        </mxCell>
        <mxCell id="U6u_kDi3AGG093OxEGTw-7" style="edgeStyle=orthogonalEdgeStyle;rounded=0;orthogonalLoop=1;jettySize=auto;html=1;entryX=0.5;entryY=0;entryDx=0;entryDy=0;" edge="1" parent="WIyWlLk6GJQsqaUBKTNV-1" source="U6u_kDi3AGG093OxEGTw-4" target="U6u_kDi3AGG093OxEGTw-6">
          <mxGeometry relative="1" as="geometry" />
        </mxCell>
        <mxCell id="U6u_kDi3AGG093OxEGTw-4" value="int grade" style="shape=hexagon;perimeter=hexagonPerimeter2;whiteSpace=wrap;html=1;fixedSize=1;" vertex="1" parent="WIyWlLk6GJQsqaUBKTNV-1">
          <mxGeometry x="140" y="310" width="120" height="80" as="geometry" />
        </mxCell>
        <mxCell id="U6u_kDi3AGG093OxEGTw-10" style="edgeStyle=orthogonalEdgeStyle;rounded=0;orthogonalLoop=1;jettySize=auto;html=1;" edge="1" parent="WIyWlLk6GJQsqaUBKTNV-1" source="U6u_kDi3AGG093OxEGTw-6" target="U6u_kDi3AGG093OxEGTw-9">
          <mxGeometry relative="1" as="geometry" />
        </mxCell>
        <mxCell id="U6u_kDi3AGG093OxEGTw-6" value="grade &amp;gt;= 75" style="rhombus;whiteSpace=wrap;html=1;" vertex="1" parent="WIyWlLk6GJQsqaUBKTNV-1">
          <mxGeometry x="150" y="440" width="100" height="100" as="geometry" />
        </mxCell>
        <mxCell id="U6u_kDi3AGG093OxEGTw-8" style="edgeStyle=orthogonalEdgeStyle;rounded=0;orthogonalLoop=1;jettySize=auto;html=1;entryX=0.5;entryY=0;entryDx=0;entryDy=0;entryPerimeter=0;" edge="1" parent="WIyWlLk6GJQsqaUBKTNV-1" source="U6u_kDi3AGG093OxEGTw-6" target="U6u_kDi3AGG093OxEGTw-3">
          <mxGeometry relative="1" as="geometry" />
        </mxCell>
        <mxCell id="U6u_kDi3AGG093OxEGTw-9" value="Display&lt;div&gt;&quot;Passed&quot;&lt;/div&gt;" style="shape=parallelogram;perimeter=parallelogramPerimeter;whiteSpace=wrap;html=1;fixedSize=1;" vertex="1" parent="WIyWlLk6GJQsqaUBKTNV-1">
          <mxGeometry x="310" y="460" width="120" height="60" as="geometry" />
        </mxCell>
        <mxCell id="U6u_kDi3AGG093OxEGTw-11" style="edgeStyle=orthogonalEdgeStyle;rounded=0;orthogonalLoop=1;jettySize=auto;html=1;entryX=1;entryY=0.5;entryDx=0;entryDy=0;entryPerimeter=0;" edge="1" parent="WIyWlLk6GJQsqaUBKTNV-1" source="U6u_kDi3AGG093OxEGTw-9" target="U6u_kDi3AGG093OxEGTw-3">
          <mxGeometry relative="1" as="geometry">
            <Array as="points">
              <mxPoint x="360" y="615" />
            </Array>
          </mxGeometry>
        </mxCell>
      </root>
    </mxGraphModel>
  </diagram>
  <diagram name="If Else" id="wgRW3ykwmBNnsoXeUPCp">
    <mxGraphModel dx="1009" dy="547" grid="1" gridSize="10" guides="1" tooltips="1" connect="1" arrows="1" fold="1" page="1" pageScale="1" pageWidth="827" pageHeight="1169" math="0" shadow="0">
      <root>
        <mxCell id="HP0GB9q9wchO6ULZUXLa-0" />
        <mxCell id="HP0GB9q9wchO6ULZUXLa-1" parent="HP0GB9q9wchO6ULZUXLa-0" />
        <mxCell id="HP0GB9q9wchO6ULZUXLa-2" style="edgeStyle=orthogonalEdgeStyle;rounded=0;orthogonalLoop=1;jettySize=auto;html=1;entryX=0.5;entryY=0;entryDx=0;entryDy=0;" edge="1" parent="HP0GB9q9wchO6ULZUXLa-1" source="HP0GB9q9wchO6ULZUXLa-3" target="HP0GB9q9wchO6ULZUXLa-6">
          <mxGeometry relative="1" as="geometry" />
        </mxCell>
        <mxCell id="HP0GB9q9wchO6ULZUXLa-3" value="Start" style="strokeWidth=2;html=1;shape=mxgraph.flowchart.terminator;whiteSpace=wrap;" vertex="1" parent="HP0GB9q9wchO6ULZUXLa-1">
          <mxGeometry x="150" y="190" width="100" height="60" as="geometry" />
        </mxCell>
        <mxCell id="HP0GB9q9wchO6ULZUXLa-4" value="End" style="strokeWidth=2;html=1;shape=mxgraph.flowchart.terminator;whiteSpace=wrap;" vertex="1" parent="HP0GB9q9wchO6ULZUXLa-1">
          <mxGeometry x="150" y="585" width="100" height="60" as="geometry" />
        </mxCell>
        <mxCell id="HP0GB9q9wchO6ULZUXLa-5" style="edgeStyle=orthogonalEdgeStyle;rounded=0;orthogonalLoop=1;jettySize=auto;html=1;entryX=0.5;entryY=0;entryDx=0;entryDy=0;" edge="1" parent="HP0GB9q9wchO6ULZUXLa-1" source="HP0GB9q9wchO6ULZUXLa-6" target="HP0GB9q9wchO6ULZUXLa-8">
          <mxGeometry relative="1" as="geometry" />
        </mxCell>
        <mxCell id="HP0GB9q9wchO6ULZUXLa-6" value="int grade" style="shape=hexagon;perimeter=hexagonPerimeter2;whiteSpace=wrap;html=1;fixedSize=1;" vertex="1" parent="HP0GB9q9wchO6ULZUXLa-1">
          <mxGeometry x="140" y="310" width="120" height="80" as="geometry" />
        </mxCell>
        <mxCell id="HP0GB9q9wchO6ULZUXLa-7" style="edgeStyle=orthogonalEdgeStyle;rounded=0;orthogonalLoop=1;jettySize=auto;html=1;" edge="1" parent="HP0GB9q9wchO6ULZUXLa-1" source="HP0GB9q9wchO6ULZUXLa-8" target="HP0GB9q9wchO6ULZUXLa-10">
          <mxGeometry relative="1" as="geometry" />
        </mxCell>
        <mxCell id="HP0GB9q9wchO6ULZUXLa-8" value="grade &amp;gt;= 75" style="rhombus;whiteSpace=wrap;html=1;" vertex="1" parent="HP0GB9q9wchO6ULZUXLa-1">
          <mxGeometry x="150" y="440" width="100" height="100" as="geometry" />
        </mxCell>
        <mxCell id="HP0GB9q9wchO6ULZUXLa-9" style="edgeStyle=orthogonalEdgeStyle;rounded=0;orthogonalLoop=1;jettySize=auto;html=1;entryX=0.5;entryY=0;entryDx=0;entryDy=0;entryPerimeter=0;" edge="1" parent="HP0GB9q9wchO6ULZUXLa-1" source="HP0GB9q9wchO6ULZUXLa-8" target="HP0GB9q9wchO6ULZUXLa-4">
          <mxGeometry relative="1" as="geometry" />
        </mxCell>
        <mxCell id="HP0GB9q9wchO6ULZUXLa-10" value="Display&lt;div&gt;&quot;Passed&quot;&lt;/div&gt;" style="shape=parallelogram;perimeter=parallelogramPerimeter;whiteSpace=wrap;html=1;fixedSize=1;" vertex="1" parent="HP0GB9q9wchO6ULZUXLa-1">
          <mxGeometry x="310" y="460" width="120" height="60" as="geometry" />
        </mxCell>
        <mxCell id="HP0GB9q9wchO6ULZUXLa-11" style="edgeStyle=orthogonalEdgeStyle;rounded=0;orthogonalLoop=1;jettySize=auto;html=1;entryX=1;entryY=0.5;entryDx=0;entryDy=0;entryPerimeter=0;" edge="1" parent="HP0GB9q9wchO6ULZUXLa-1" source="HP0GB9q9wchO6ULZUXLa-10" target="HP0GB9q9wchO6ULZUXLa-4">
          <mxGeometry relative="1" as="geometry">
            <Array as="points">
              <mxPoint x="360" y="615" />
            </Array>
          </mxGeometry>
        </mxCell>
      </root>
    </mxGraphModel>
  </diagram>
</mxfile>
